<svg xmlns="http://www.w3.org/2000/svg" xmlns:xlink="http://www.w3.org/1999/xlink" width="500" zoomAndPan="magnify" viewBox="0 0 375 179.999997" height="240" preserveAspectRatio="xMidYMid meet" version="1.0"><defs><clipPath id="118e57f19a"><path d="M 29.605469 50 L 150 50 L 150 180 L 29.605469 180 Z M 29.605469 50 " clip-rule="nonzero"/></clipPath><clipPath id="1e0ef9e56d"><path d="M 205.886719 21 L 345.261719 21 L 345.261719 89.167969 L 205.886719 89.167969 Z M 205.886719 21 " clip-rule="nonzero"/></clipPath><clipPath id="5f5e939a85"><path d="M 154.480469 83.277344 L 341.367188 83.277344 L 341.367188 179.992188 L 154.480469 179.992188 Z M 154.480469 83.277344 " clip-rule="nonzero"/></clipPath><clipPath id="94107cf026"><path d="M 245.863281 90 L 261.589844 90 L 261.589844 105.726562 L 245.863281 105.726562 Z M 245.863281 90 " clip-rule="nonzero"/></clipPath><clipPath id="ea85ec7369"><path d="M 253.726562 90 C 249.382812 90 245.863281 93.519531 245.863281 97.863281 C 245.863281 102.207031 249.382812 105.726562 253.726562 105.726562 C 258.066406 105.726562 261.589844 102.207031 261.589844 97.863281 C 261.589844 93.519531 258.066406 90 253.726562 90 Z M 253.726562 90 " clip-rule="nonzero"/></clipPath></defs><path fill="#e71f69" d="M 146.113281 171.722656 C 146.113281 171.722656 146.339844 119.980469 228.578125 51.824219 C 228.578125 51.824219 143.207031 111.011719 151.355469 0 C 151.355469 0 113.046875 77.117188 146.113281 171.722656 " fill-opacity="1" fill-rule="nonzero"/><path fill="#e71f69" d="M 188.019531 28.183594 C 196.863281 33.824219 199.078125 46.171875 192.964844 55.769531 C 186.847656 65.363281 174.71875 68.570312 165.871094 62.929688 C 157.027344 57.289062 154.8125 44.941406 160.929688 35.34375 C 167.042969 25.75 179.171875 22.542969 188.019531 28.183594 " fill-opacity="1" fill-rule="nonzero"/><g clip-path="url(#118e57f19a)"><path fill="#f8b31a" d="M 149.121094 179.464844 C 149.121094 179.464844 112.351562 149.050781 111.816406 50.539062 C 111.816406 50.539062 104.121094 146.042969 29.710938 75.328125 C 29.710938 75.328125 62.316406 147.742188 149.121094 179.464844 " fill-opacity="1" fill-rule="nonzero"/></g><path fill="#f8b31a" d="M 71.246094 65.652344 C 80.4375 62.636719 90.539062 68.277344 93.808594 78.25 C 97.078125 88.222656 92.273438 98.75 83.082031 101.765625 C 73.886719 104.777344 63.785156 99.136719 60.515625 89.164062 C 57.246094 79.191406 62.050781 68.664062 71.246094 65.652344 " fill-opacity="1" fill-rule="nonzero"/><path fill="#00a89f" d="M 324.105469 55.1875 L 268.164062 140.136719 C 206.964844 126.539062 167.964844 145.191406 161.917969 148.992188 C 161.917969 148.992188 216.226562 54.699219 324.105469 55.1875 " fill-opacity="1" fill-rule="nonzero"/><g clip-path="url(#1e0ef9e56d)"><path fill="#f8b31a" d="M 345.261719 21.039062 L 332.011719 41.160156 C 275.21875 40.175781 232.109375 66.6875 205.910156 89.140625 C 229.914062 61.746094 276.425781 22.105469 345.261719 21.039062 " fill-opacity="1" fill-rule="nonzero"/></g><path fill="#e71f69" d="M 333.492188 72.574219 L 276.386719 157.242188 C 207.957031 140.882812 165.054688 161.019531 158.1875 164.601562 L 160.277344 155.871094 C 172.847656 149.847656 214.324219 135.804688 275.074219 150.332031 L 328.039062 71.375 C 329.84375 71.738281 331.664062 72.136719 333.492188 72.574219 " fill-opacity="1" fill-rule="nonzero"/><g clip-path="url(#5f5e939a85)"><path fill="#00609e" d="M 341.351562 84.613281 L 282.421875 171.792969 C 207.15625 153.796875 160.664062 176.691406 154.507812 179.992188 L 156.585938 171.300781 C 169.746094 164.886719 214.566406 149.246094 280.824219 165.085938 L 335.78125 83.386719 C 337.625 83.757812 339.484375 84.167969 341.351562 84.613281 " fill-opacity="1" fill-rule="nonzero"/></g><g clip-path="url(#94107cf026)"><g clip-path="url(#ea85ec7369)"><path fill="#00a89f" d="M 245.863281 90 L 261.589844 90 L 261.589844 105.726562 L 245.863281 105.726562 Z M 245.863281 90 " fill-opacity="1" fill-rule="nonzero"/></g></g></svg>